<?xml version="1.0" standalone="no"?>
<!DOCTYPE svg PUBLIC "-//W3C//DTD SVG 20010904//EN"
 "http://www.w3.org/TR/2001/REC-SVG-20010904/DTD/svg10.dtd">
<svg version="1.0" xmlns="http://www.w3.org/2000/svg"
 width="1280.000000pt" height="808.000000pt" viewBox="0 0 1280.000000 808.000000"
 preserveAspectRatio="xMidYMid meet">
<g transform="translate(0.000000,808.000000) scale(0.100000,-0.100000)"
fill="#000000" stroke="none">
<path d="M1093 8059 c-20 -20 -20 -24 -6 -45 9 -15 16 -53 18 -106 1 -46 6
-108 10 -138 6 -47 4 -59 -12 -79 l-20 -25 -7 50 c-14 101 -15 104 -45 104
-16 0 -40 9 -54 20 -14 11 -33 20 -44 20 -10 0 -61 28 -113 63 -52 35 -107 71
-122 81 l-27 17 -17 -54 c-14 -47 -15 -64 -6 -111 8 -41 8 -71 0 -111 -8 -44
-8 -61 2 -80 7 -13 9 -31 5 -42 -15 -35 -14 -165 1 -180 18 -18 2 -53 -24 -53
-14 0 -20 -15 -29 -72 -17 -104 -168 -511 -269 -725 -14 -29 -38 -63 -54 -76
-16 -14 -33 -42 -39 -65 -6 -22 -21 -46 -34 -55 -22 -14 -22 -18 -25 -233 -2
-159 -6 -225 -16 -244 -8 -14 -27 -50 -43 -82 -17 -31 -51 -86 -77 -123 -50
-71 -58 -112 -32 -163 7 -15 23 -61 36 -104 l22 -76 -27 -59 c-15 -32 -31 -66
-37 -76 -7 -14 -5 -24 6 -36 20 -22 20 -30 0 -52 -14 -15 -10 -24 46 -108 58
-85 62 -94 60 -144 -3 -73 -4 -70 40 -126 30 -37 46 -50 63 -48 14 1 22 -3 22
-13 0 -10 -12 -16 -37 -18 l-38 -3 0 -85 0 -84 55 -60 c30 -33 55 -65 55 -72
0 -6 -11 -23 -24 -37 -13 -15 -31 -48 -40 -76 l-17 -50 36 -33 c25 -23 43 -53
57 -95 25 -76 64 -156 88 -179 15 -15 17 -22 8 -46 -10 -25 -8 -34 11 -61 l23
-31 -24 -66 -23 -66 45 -39 c25 -22 61 -42 80 -45 19 -4 68 -22 108 -40 59
-27 75 -39 86 -66 20 -46 53 -74 106 -88 65 -17 73 -27 66 -77 l-6 -43 39 0
c34 0 45 -6 80 -47 81 -91 99 -135 109 -266 5 -65 13 -122 18 -126 5 -5 119
-18 254 -30 335 -30 328 -28 342 -59 9 -17 151 -112 448 -299 239 -150 444
-275 455 -278 50 -12 737 -95 744 -91 5 3 12 30 16 61 3 30 11 57 16 60 14 9
379 -35 401 -48 10 -7 22 -23 24 -38 4 -15 78 -101 185 -213 98 -103 179 -195
179 -204 0 -10 7 -28 15 -40 10 -14 15 -40 14 -69 -4 -84 18 -110 196 -238
133 -96 166 -115 195 -115 47 0 84 37 130 133 33 67 37 72 70 75 19 2 40 8 46
13 7 6 33 4 70 -6 32 -8 81 -15 110 -15 53 0 84 -19 84 -52 0 -16 76 -92 122
-122 17 -11 30 -33 38 -64 25 -90 87 -219 134 -276 25 -31 46 -62 46 -69 0
-25 51 -87 71 -87 22 0 39 -35 39 -82 0 -47 27 -126 73 -212 l42 -78 120 -53
c66 -29 150 -58 188 -65 43 -8 81 -22 106 -41 31 -22 46 -27 74 -22 20 3 37 1
41 -6 4 -6 14 -11 22 -11 26 0 18 80 -12 111 -16 17 -36 62 -55 125 -27 91
-29 103 -17 144 7 25 11 53 9 63 -1 10 6 35 15 55 10 20 18 56 18 79 -1 38 2
42 24 45 19 2 31 14 46 45 19 38 24 42 48 37 24 -5 28 -2 36 28 7 28 16 36 57
51 61 23 59 21 44 46 -17 25 -4 39 21 23 24 -15 74 4 205 76 70 38 94 57 108
85 10 19 34 47 53 62 24 19 34 33 32 48 -3 20 1 22 33 19 20 -1 90 11 155 27
265 67 238 65 381 31 71 -17 138 -32 151 -35 19 -5 22 -1 22 22 0 49 13 58 59
44 28 -8 46 -21 56 -41 11 -21 25 -31 50 -36 24 -4 44 -17 61 -39 15 -21 45
-40 81 -54 l57 -22 23 26 c27 29 59 32 85 8 16 -14 22 -14 43 -3 14 8 28 25
32 39 3 14 7 29 10 33 6 12 128 -58 139 -81 6 -12 13 -24 16 -27 9 -8 149 66
143 75 -3 5 -41 30 -86 57 -44 26 -83 53 -86 61 -7 17 40 68 80 89 27 14 27
15 12 50 -23 57 -19 71 26 94 34 18 50 20 97 14 31 -5 62 -6 67 -4 6 2 22 4
37 4 15 1 34 10 43 21 15 20 15 20 38 -7 28 -34 77 -37 114 -8 14 11 36 20 48
20 12 0 32 9 45 20 26 23 38 24 74 10 17 -6 36 -6 56 2 25 8 34 7 49 -6 10 -9
31 -16 48 -16 17 0 52 -9 77 -20 30 -12 57 -17 76 -13 27 5 30 3 30 -20 0 -16
11 -33 35 -51 28 -22 35 -34 35 -61 l0 -35 103 55 c56 29 124 72 151 94 32 28
58 41 77 41 45 0 120 -43 169 -97 73 -80 150 -143 174 -143 21 0 53 -42 79
-105 13 -31 10 -91 -8 -146 -11 -31 -15 -63 -11 -84 9 -44 54 -101 69 -86 6 6
17 11 25 11 12 0 11 -5 -3 -26 -21 -33 -14 -64 28 -112 18 -20 44 -54 57 -74
14 -21 33 -38 42 -38 28 0 48 -11 48 -27 0 -8 23 -42 50 -75 47 -56 54 -71 62
-123 2 -13 16 -23 44 -31 63 -18 81 -30 125 -86 22 -29 50 -57 62 -63 12 -6
23 -21 25 -33 2 -12 9 -22 16 -22 29 0 114 35 154 63 l43 31 -7 57 c-5 49 -3
61 16 87 19 25 21 37 15 69 -10 47 -10 86 0 139 8 46 -14 99 -89 208 -24 35
-54 94 -66 130 -14 43 -30 72 -46 82 -29 20 -46 75 -37 127 5 33 1 45 -38 102
-26 37 -57 70 -76 79 -18 9 -33 22 -33 30 0 8 -22 41 -49 73 -62 75 -71 93
-71 143 0 24 -8 53 -18 68 -46 66 -86 241 -79 346 4 59 13 85 61 181 31 61 56
117 56 123 0 25 87 116 168 177 56 43 92 77 100 98 8 18 25 47 38 64 14 18 31
51 39 74 24 66 71 142 104 167 17 12 54 27 83 33 69 15 83 28 108 104 30 91
117 193 190 222 30 12 69 33 87 48 28 22 33 33 33 67 0 36 -2 40 -20 34 -68
-21 -64 -21 -55 10 4 16 7 37 7 47 -1 12 7 17 24 17 35 0 79 25 103 59 17 23
21 44 21 105 l0 76 -40 -16 c-66 -27 -101 9 -40 41 25 13 30 22 30 50 0 19 -9
49 -20 67 -11 18 -20 43 -20 54 0 28 -64 86 -86 77 -18 -7 -64 33 -64 55 0 9
7 23 16 33 15 17 14 20 -5 48 -12 16 -21 42 -21 59 0 47 -20 93 -46 102 -17 7
-24 17 -24 37 0 48 11 56 59 42 47 -14 58 -24 63 -59 2 -19 8 -24 25 -22 29 4
36 -11 23 -55 -6 -21 -10 -78 -8 -128 l3 -90 43 78 c24 43 50 108 58 145 8 37
24 84 35 104 15 29 19 57 19 126 0 78 -3 92 -25 121 -13 19 -38 42 -54 52 -30
18 -57 56 -47 66 13 13 59 -10 74 -37 9 -17 22 -30 28 -30 21 0 63 57 109 149
l46 93 -2 140 -2 140 59 34 c32 19 93 51 134 70 62 30 81 45 112 89 21 30 38
59 38 64 0 6 -20 11 -46 11 -36 0 -65 -10 -131 -46 -57 -31 -88 -43 -95 -36
-17 17 74 77 154 101 151 46 238 89 238 118 0 19 20 26 37 12 13 -11 19 -9 40
16 71 85 62 79 83 60 18 -17 21 -16 49 8 17 14 44 28 61 32 52 11 53 79 4 163
l-26 44 -36 -35 c-32 -33 -35 -38 -24 -62 10 -22 9 -27 -5 -32 -11 -5 -28 7
-56 40 -21 26 -48 47 -58 47 -30 0 -32 23 -9 78 l22 50 -22 22 c-25 25 -24 40
16 179 14 47 23 98 20 112 -6 32 9 49 45 49 19 0 30 6 34 19 3 11 22 25 43 32
45 15 55 27 82 102 13 36 27 57 37 57 8 0 32 19 53 41 30 33 43 41 64 37 21
-4 39 9 115 83 49 48 99 90 110 94 27 8 26 20 0 48 -12 12 -27 36 -34 52 -11
24 -23 33 -60 43 -38 10 -49 18 -60 45 -8 19 -32 46 -54 60 -38 25 -43 34 -75
139 -19 62 -43 142 -53 178 -18 62 -21 67 -83 107 -36 24 -72 43 -80 43 -8 0
-41 -16 -73 -36 -67 -41 -93 -40 -83 6 6 34 -2 37 -51 19 -28 -9 -33 -19 -73
-152 -43 -141 -44 -144 -44 -298 -1 -142 -3 -159 -21 -179 -12 -13 -20 -36
-20 -58 0 -32 -3 -37 -30 -42 -16 -4 -40 -12 -52 -19 -24 -12 -63 -79 -63
-106 0 -23 -18 -28 -320 -95 -151 -34 -291 -66 -311 -71 -52 -13 -195 -161
-230 -237 -15 -31 -43 -73 -63 -91 -42 -41 -45 -65 -11 -105 41 -47 34 -76
-33 -137 -39 -36 -80 -62 -122 -78 -60 -23 -65 -23 -94 -7 -26 14 -40 15 -86
6 -61 -11 -183 -41 -188 -45 -2 -2 -9 -26 -17 -53 -12 -48 -12 -52 12 -86 19
-27 24 -42 18 -63 -7 -30 -170 -193 -192 -193 -8 0 -32 -17 -56 -39 -55 -50
-160 -118 -196 -126 -18 -4 -46 -26 -71 -56 -36 -43 -46 -50 -68 -44 -19 5
-36 -2 -69 -26 -38 -27 -51 -31 -87 -27 -52 6 -186 59 -186 73 0 6 11 27 25
47 14 20 25 48 25 61 0 13 7 32 15 43 8 10 19 35 25 55 6 23 19 40 35 47 16 7
25 20 26 34 0 13 4 47 8 77 7 48 3 66 -36 180 -24 69 -47 129 -52 134 -4 4
-31 14 -60 22 l-51 13 -56 -69 c-55 -69 -77 -82 -88 -53 -8 22 -10 18 39 74
l45 51 0 80 c0 48 -6 94 -15 116 -19 45 -19 68 1 98 15 23 15 24 -38 59 -29
19 -71 38 -93 42 -22 3 -49 15 -61 25 -11 11 -45 27 -75 37 -42 13 -54 22 -54
37 0 18 9 21 75 26 50 4 95 15 134 33 32 15 57 29 55 31 -3 2 -60 24 -129 50
-96 36 -132 45 -158 40 -46 -8 -62 8 -62 61 0 24 -4 44 -10 44 -5 0 -31 -8
-57 -19 -26 -10 -79 -24 -118 -31 -75 -14 -111 -29 -162 -67 -29 -23 -38 -24
-100 -18 -53 6 -76 14 -105 36 -39 32 -107 59 -144 59 -56 0 -33 64 44 121
l57 43 -35 8 c-19 4 -57 8 -84 9 -39 2 -50 -1 -59 -17 -26 -47 -151 -148 -224
-181 -32 -14 -75 -41 -95 -60 -36 -31 -42 -33 -103 -30 -36 1 -65 6 -65 10 0
4 7 18 15 31 15 23 15 24 -26 34 -39 10 -47 8 -122 -29 -92 -47 -116 -42 -71
16 43 53 156 143 300 238 71 46 139 89 152 96 34 18 27 27 -37 45 -43 12 -77
15 -128 10 -56 -5 -75 -3 -96 10 -24 16 -29 16 -100 -9 -65 -23 -80 -26 -110
-16 -19 7 -43 21 -52 31 -10 11 -27 20 -39 20 -11 0 -36 16 -56 35 -43 42
-121 60 -220 51 -54 -6 -74 -3 -110 13 -25 11 -59 21 -76 21 -30 0 -32 2 -38
53 -15 114 -15 116 -55 127 -60 17 -67 14 -77 -32 -8 -37 -13 -43 -44 -51 -55
-13 -649 -12 -1040 2 -592 20 -1223 88 -2195 235 -620 94 -640 98 -1255 236
-635 142 -981 229 -988 249 -6 18 -36 13 -59 -10z m7801 -1550 c14 -11 26 -24
26 -29 0 -4 -16 -27 -35 -50 -19 -23 -35 -53 -35 -67 0 -14 -9 -36 -20 -50
-11 -14 -20 -40 -20 -57 0 -18 -6 -41 -14 -51 -12 -17 -17 -18 -39 -6 -23 12
-29 11 -56 -9 -45 -31 -67 -83 -76 -175 -16 -170 -9 -221 51 -367 27 -65 31
-148 13 -257 -18 -107 -105 -221 -168 -221 -28 0 -56 30 -75 80 -10 24 -26 50
-37 58 -14 9 -19 25 -19 55 0 23 -11 98 -24 167 -22 112 -23 129 -10 159 9 21
13 61 11 105 -2 60 1 76 21 103 15 21 22 45 22 76 0 29 12 69 34 118 29 65 66
192 66 231 0 7 -24 -14 -54 -47 -30 -33 -57 -57 -61 -53 -15 14 28 101 71 145
37 37 46 42 62 32 23 -15 77 11 87 41 4 13 15 20 33 20 27 0 40 6 103 47 44
30 107 30 143 2z m2276 -1719 c0 -5 -5 -10 -11 -10 -5 0 -7 5 -4 10 3 6 8 10
11 10 2 0 4 -4 4 -10z m9 -112 c7 -18 14 -60 17 -93 5 -57 4 -59 -10 -35 -25
42 -48 118 -41 140 9 29 21 25 34 -12z m-3069 -3088 c13 -9 13 -11 0 -20 -23
-15 -60 -12 -60 4 0 23 35 32 60 16z m128 -41 c-2 -6 -8 -10 -13 -10 -5 0 -11
4 -13 10 -2 6 4 11 13 11 9 0 15 -5 13 -11z"/>
<path d="M1120 2034 c-61 -28 -79 -42 -98 -75 -28 -49 -72 -71 -116 -58 -72
21 -93 -5 -53 -68 14 -21 28 -60 31 -88 3 -27 10 -51 14 -53 4 -1 22 -11 40
-22 36 -22 36 -23 10 -124 l-9 -38 -52 6 c-67 9 -70 12 -64 57 3 22 2 41 -2
44 -7 4 -181 -21 -187 -27 -1 -2 6 -23 16 -46 15 -33 17 -49 9 -69 -14 -38 27
-78 109 -103 l63 -20 41 21 c22 11 44 17 49 12 11 -11 -8 -132 -23 -150 -6 -7
-24 -13 -41 -13 -21 0 -41 -10 -64 -32 l-33 -32 -28 27 c-29 28 -52 35 -52 17
0 -6 -31 -31 -70 -56 -38 -25 -70 -52 -70 -61 0 -9 5 -33 12 -55 9 -30 9 -47
-1 -73 -16 -44 6 -92 47 -101 15 -3 41 -9 57 -13 22 -5 35 -18 49 -46 18 -36
18 -40 3 -68 -22 -38 -15 -47 37 -47 40 0 46 -4 71 -41 25 -39 29 -41 63 -34
21 4 49 9 65 12 33 6 35 -8 7 -47 -12 -16 -32 -54 -46 -85 -25 -55 -27 -56
-137 -112 -62 -30 -124 -64 -139 -74 -15 -11 -43 -19 -66 -19 -22 0 -59 -7
-82 -15 -23 -8 -57 -15 -74 -15 -18 0 -41 -7 -52 -16 -17 -14 -13 -15 56 -11
73 4 381 89 489 134 24 10 90 57 147 103 90 74 103 88 99 110 -5 21 7 36 81
99 94 80 164 124 190 119 13 -2 8 -15 -25 -64 -23 -35 -41 -74 -41 -89 0 -25
3 -27 28 -20 128 31 148 44 162 110 l6 30 77 -1 76 -1 63 -55 c56 -49 69 -56
121 -62 93 -10 331 -109 368 -152 8 -11 30 -53 48 -94 37 -87 117 -183 253
-304 l87 -77 66 30 65 30 0 65 0 66 -93 46 -92 46 -109 149 c-61 82 -114 149
-119 149 -5 0 -34 -14 -65 -32 l-55 -31 -61 67 -61 67 -57 -1 c-95 0 -88 -47
-88 583 l0 552 -54 59 c-52 59 -53 59 -76 43 -34 -24 -45 -22 -130 19 -66 32
-82 35 -128 31 -73 -8 -102 4 -102 42 0 27 -5 31 -71 56 -59 23 -75 25 -93 16
-16 -9 -29 -9 -50 -2 -42 17 -64 13 -146 -25z"/>
<path d="M3258 1019 c-29 -11 -41 -31 -32 -54 4 -10 20 -15 50 -15 38 0 46 4
56 25 8 19 8 28 -2 40 -14 17 -33 18 -72 4z"/>
<path d="M3700 855 c-9 -11 -10 -27 -4 -58 9 -41 10 -42 53 -45 41 -3 60 7 61
30 0 14 -72 88 -85 88 -7 0 -18 -7 -25 -15z"/>
<path d="M3950 696 c0 -12 11 -16 49 -16 32 0 53 -5 61 -15 11 -13 15 -13 21
-3 14 22 10 26 -38 33 -27 3 -58 9 -70 12 -17 4 -23 1 -23 -11z"/>
<path d="M4130 631 c0 -5 10 -11 23 -15 13 -3 29 -17 35 -31 10 -21 17 -25 35
-19 71 21 65 69 -8 58 -27 -4 -45 -2 -49 5 -9 13 -36 15 -36 2z"/>
<path d="M4016 602 c-7 -12 13 -62 26 -62 5 0 11 7 15 16 7 19 -31 62 -41 46z"/>
<path d="M4360 394 c0 -8 -12 -35 -26 -60 l-26 -44 23 -101 c19 -85 26 -103
47 -112 21 -10 27 -7 56 24 29 30 98 61 194 85 21 6 13 30 -13 42 -13 6 -33
28 -44 49 -26 49 -84 95 -145 116 -61 21 -66 21 -66 1z"/>
</g>
</svg>
